<svg xmlns="http://www.w3.org/2000/svg" xmlns:xlink="http://www.w3.org/1999/xlink" width="277.301" height="64.547" viewBox="0 0 277.301 64.547">
  <defs>
    <clipPath id="clip-path">
      <rect id="Rectangle_3" data-name="Rectangle 3" width="277.301" height="64.547" fill="none"/>
    </clipPath>
  </defs>
  <g id="Group_2" data-name="Group 2" transform="translate(0 0)">
    <g id="Group_1" data-name="Group 1" transform="translate(0 0)" clip-path="url(#clip-path)">
      <path id="Path_1" data-name="Path 1" d="M115.219,39.268h9.022c2.408,0,5.842,1.473,5.842,4.287,0,2.946-3.434,3.749-5.842,3.749h-9.022Zm0-12.415h9.022c3.749,0,4.907,2.428,4.907,3.871,0,1.8-1.209,3.363-4.907,3.363h-9.022Zm9.022-5.354H109.407V52.8h14.834c6.472,0,11.694-2.235,11.694-9.195,0-1.971-1.341-5.852-5-6.97A6.375,6.375,0,0,0,135,30.581c0-6.32-4.6-9.083-10.76-9.083" transform="translate(-37.803 -7.428)" fill="#fff" fill-rule="evenodd"/>
      <path id="Path_2" data-name="Path 2" d="M177.923,21.524l-.06,17.9c-.018,5.364-2.8,8.616-7.669,8.6s-8.067-3.024-8.048-8.653l.06-17.9-5.852-.02-.06,17.9c-.031,9.428,6.333,14,13.841,14.027,7.854.026,13.549-4.689,13.58-13.934l.06-17.9Z" transform="translate(-54.003 -7.412)" fill="#fff" fill-rule="evenodd"/>
      <path id="Path_3" data-name="Path 3" d="M230.037,44.589a11.526,11.526,0,0,1-7.875,3.143c-7.721-.026-10.7-5.431-10.724-10.612-.023-5.233,3.257-10.84,10.8-10.815a10.728,10.728,0,0,1,7.539,2.971l3.945-3.787a16.139,16.139,0,0,0-11.465-4.814c-11.3-.038-16.639,8.245-16.616,16.424.013,8.128,4.9,16.13,16.506,16.169a16.5,16.5,0,0,0,11.9-4.6Z" transform="translate(-71.053 -7.144)" fill="#fff" fill-rule="evenodd"/>
      <path id="Path_4" data-name="Path 4" d="M279.333,21.725l-7.315-.025L260.086,34.9l.044-13.239-5.893-.02-.1,31.3,5.892.02.047-13.868,13.039,13.912,7.285.025v-.356l-15-15.839L279.332,21.9Z" transform="translate(-87.81 -7.477)" fill="#fff" fill-rule="evenodd"/>
      <path id="Path_5" data-name="Path 5" d="M298.931,21.791l-.105,31.3,21.976.073.018-5.445-16.083-.054.087-25.857Z" transform="translate(-103.252 -7.529)" fill="#fff" fill-rule="evenodd"/>
      <path id="Path_6" data-name="Path 6" d="M362.031,47.5l-17.556-.059.024-7.061,16.927.057.018-5.486L344.516,34.9l.024-7.234,17.557.059.019-5.72-23.4-.079c-.035,10.434-.071,20.9-.105,31.3l23.4.079Z" transform="translate(-116.999 -7.575)" fill="#fff" fill-rule="evenodd"/>
      <path id="Path_7" data-name="Path 7" d="M409.078,53.056l-9.434-10.7c5.937-1.189,7.923-5.511,7.937-9.818.018-5.426-3.856-10.356-11.222-10.421-4.958.024-9.916-.033-14.874-.05l-.1,31.3,5.9.02.035-10.444,5.669.019,9.068,10.475,7.021.024ZM396.342,27.614c3.708.012,5.356,2.517,5.348,5.037s-1.632,5.014-5.382,5l-8.971-.03.034-10.038Z" transform="translate(-131.777 -7.624)" fill="#fff" fill-rule="evenodd"/>
      <path id="Path_8" data-name="Path 8" d="M110.719,82.037l2.143.007a1.347,1.347,0,1,1-.009,2.693l-2.143-.007Zm2.148-1.354c-1.189-.024-2.378-.008-3.576-.012l-.026,7.6,1.433.005.007-2.235,2.143.007a2.684,2.684,0,1,0,.018-5.365" transform="translate(-37.754 -27.873)" fill="#fff" fill-rule="evenodd"/>
      <path id="Path_9" data-name="Path 9" d="M130.86,86.932l-4.257-.014.005-1.717,4.115.014.005-1.331-4.115-.014.006-1.758,4.257.014,0-1.382-5.68-.019c-.008,2.53-.017,5.07-.026,7.6l5.68.019Z" transform="translate(-43.252 -27.893)" fill="#fff" fill-rule="evenodd"/>
      <path id="Path_10" data-name="Path 10" d="M146.268,81.918a3.085,3.085,0,0,0-2.982-1.514c-1.4.005-2.939.641-2.944,2.2-.006,1.7,1.425,2.119,2.969,2.306,1.015.115,1.756.4,1.754,1.124,0,.823-.848,1.135-1.751,1.132a2.157,2.157,0,0,1-2.13-1.216l-1.191.616c.554,1.393,1.751,1.875,3.3,1.88,1.7.006,3.193-.721,3.2-2.407.006-1.808-1.466-2.23-3.05-2.429-.914-.115-1.686-.3-1.683-.96,0-.569.511-1,1.567-1a2.156,2.156,0,0,1,1.8.849Z" transform="translate(-48.372 -27.781)" fill="#fff" fill-rule="evenodd"/>
      <path id="Path_11" data-name="Path 11" d="M158.084,88.436l1.433,0,.021-6.3,2.408.008,0-1.3-6.248-.021,0,1.3,2.408.008Z" transform="translate(-53.797 -27.928)" fill="#fff" fill-rule="evenodd"/>
      <path id="Path_12" data-name="Path 12" d="M189.368,86.532a2.792,2.792,0,0,1-1.912.755,2.428,2.428,0,0,1-2.6-2.579,2.492,2.492,0,0,1,2.62-2.623,2.607,2.607,0,0,1,1.827.728l.958-.921a3.907,3.907,0,0,0-2.78-1.168A3.817,3.817,0,0,0,183.44,84.7a3.736,3.736,0,0,0,4.011,3.935,4.034,4.034,0,0,0,2.889-1.118Z" transform="translate(-63.383 -27.892)" fill="#fff" fill-rule="evenodd"/>
      <path id="Path_13" data-name="Path 13" d="M203.376,80.778a3.786,3.786,0,0,0-3.915,3.98,3.7,3.7,0,0,0,3.888,3.935,3.958,3.958,0,0,0,.027-7.915m0,1.3a2.453,2.453,0,0,1,2.47,2.711,2.491,2.491,0,1,1-4.979,0,2.474,2.474,0,0,1,2.509-2.715" transform="translate(-68.919 -27.911)" fill="#fff" fill-rule="evenodd"/>
      <path id="Path_14" data-name="Path 14" d="M222.755,85.757l-3.7-4.717-1.158,0-.026,7.6,1.433.005.017-5.131,3.965,5.144.894,0,.026-7.6-1.433,0Z" transform="translate(-75.279 -28)" fill="#fff" fill-rule="evenodd"/>
      <path id="Path_15" data-name="Path 15" d="M236,88.7l1.433,0,.021-6.3,2.408.008,0-1.3-6.248-.021,0,1.3,2.408.008Z" transform="translate(-80.719 -28.018)" fill="#fff" fill-rule="evenodd"/>
      <path id="Path_16" data-name="Path 16" d="M255.937,88.663l-2.3-2.6a2.253,2.253,0,0,0,1.928-2.382,2.515,2.515,0,0,0-2.725-2.529c-1.2.007-2.408-.008-3.607-.012l-.026,7.6,1.433,0,.009-2.54,1.371,0,2.207,2.547,1.707.006Zm-3.1-6.178a1.222,1.222,0,1,1-.009,2.439l-2.174-.007.009-2.439Z" transform="translate(-86.109 -28.036)" fill="#fff" fill-rule="evenodd"/>
      <path id="Path_17" data-name="Path 17" d="M268.545,81a3.786,3.786,0,0,0-3.915,3.98,3.9,3.9,0,1,0,7.793.016,3.769,3.769,0,0,0-3.878-4m0,1.3a2.447,2.447,0,0,1,2.47,2.711,2.486,2.486,0,1,1-4.968,0,2.46,2.46,0,0,1,2.5-2.715" transform="translate(-91.436 -27.986)" fill="#fff" fill-rule="evenodd"/>
      <path id="Path_18" data-name="Path 18" d="M282.892,81.255l-.026,7.6,5.334.018,0-1.331-3.9-.013.021-6.269Z" transform="translate(-97.738 -28.075)" fill="#fff" fill-rule="evenodd"/>
      <path id="Path_19" data-name="Path 19" d="M315.4,82.486a3.061,3.061,0,0,0-2.972-1.514c-1.4.006-2.938.641-2.943,2.2-.006,1.7,1.425,2.119,2.969,2.306,1.005.115,1.757.4,1.754,1.124,0,.823-.847,1.135-1.751,1.132a2.157,2.157,0,0,1-2.13-1.216l-1.19.616c.554,1.393,1.751,1.875,3.3,1.88,1.7.006,3.193-.721,3.2-2.407.007-1.808-1.465-2.23-3.05-2.428-.914-.115-1.7-.3-1.693-.961,0-.569.521-1,1.578-1a2.154,2.154,0,0,1,1.8.85Z" transform="translate(-106.816 -27.978)" fill="#fff" fill-rule="evenodd"/>
      <path id="Path_20" data-name="Path 20" d="M331.132,87.6l-4.257-.014.005-1.717,4.115.014,0-1.331-4.115-.014.006-1.758,4.257.014,0-1.382-5.68-.019c-.009,2.53-.017,5.07-.026,7.6l5.68.019Z" transform="translate(-112.451 -28.125)" fill="#fff" fill-rule="evenodd"/>
      <path id="Path_21" data-name="Path 21" d="M347.31,88.97l-2.287-2.6a2.243,2.243,0,0,0,1.918-2.382,2.505,2.505,0,0,0-2.714-2.529c-1.209.007-2.408-.008-3.617-.012l-.026,7.6,1.433,0,.008-2.54,1.382,0,2.2,2.547,1.707.006Zm-3.088-6.178a1.222,1.222,0,1,1-.009,2.439l-2.184-.008.008-2.438Z" transform="translate(-117.68 -28.142)" fill="#fff" fill-rule="evenodd"/>
      <path id="Path_22" data-name="Path 22" d="M363.535,81.526l-1.605-.005-2.315,5.905-2.266-5.921-1.605-.005,3.134,7.641,1.483,0Z" transform="translate(-122.918 -28.16)" fill="#fff" fill-rule="evenodd"/>
      <rect id="Rectangle_2" data-name="Rectangle 2" width="7.6" height="1.412" transform="translate(244.595 60.979) rotate(-89.808)" fill="#fff"/>
      <path id="Path_23" data-name="Path 23" d="M388.3,87.2a2.792,2.792,0,0,1-1.912.755,2.428,2.428,0,0,1-2.6-2.579,2.492,2.492,0,0,1,2.62-2.623,2.607,2.607,0,0,1,1.827.728l.958-.922a3.907,3.907,0,0,0-2.78-1.168,3.817,3.817,0,0,0-4.037,3.979,3.736,3.736,0,0,0,4.011,3.935,4.034,4.034,0,0,0,2.889-1.118Z" transform="translate(-132.121 -28.123)" fill="#fff" fill-rule="evenodd"/>
      <path id="Path_24" data-name="Path 24" d="M404.544,87.851l-4.267-.014.006-1.717,4.115.014,0-1.331-4.115-.014.006-1.758,4.267.014,0-1.382-5.68-.019c-.009,2.53-.017,5.07-.026,7.6l5.68.019Z" transform="translate(-137.816 -28.21)" fill="#fff" fill-rule="evenodd"/>
      <path id="Path_25" data-name="Path 25" d="M419.936,82.837a3.076,3.076,0,0,0-2.982-1.514c-1.392.006-2.939.641-2.944,2.2-.006,1.7,1.425,2.119,2.979,2.306,1.005.115,1.746.4,1.744,1.124,0,.823-.848,1.135-1.742,1.132a2.17,2.17,0,0,1-2.139-1.216l-1.191.616c.565,1.393,1.751,1.875,3.306,1.88,1.687.006,3.182-.721,3.188-2.407.006-1.808-1.466-2.23-3.05-2.429-.9-.115-1.686-.3-1.683-.96,0-.569.511-1,1.578-1a2.169,2.169,0,0,1,1.8.85Z" transform="translate(-142.931 -28.099)" fill="#fff" fill-rule="evenodd"/>
      <path id="Path_26" data-name="Path 26" d="M12.387,12.927l40.713.137a16.266,16.266,0,0,1,4.121.456l.021-6.288A60.137,60.137,0,0,0,31.922.022L25.409,0A60.065,60.065,0,0,0,.042,7.041L0,19.173a92.378,92.378,0,0,0,.944,14.76L9.438,14.974a3.021,3.021,0,0,1,2.949-2.047" transform="translate(0 0)" fill="#fff" fill-rule="evenodd"/>
      <path id="Path_27" data-name="Path 27" d="M41.172,61.333l-32.834-.11c4.268,7.163,11.47,12.256,22.988,17.31,20.382-8.773,27.305-17.754,28.538-38.056a11.137,11.137,0,0,1-5.454,3.731c2.139.946,2.971,2.812,2.1,5.844A22.205,22.205,0,0,1,55.7,52.16l-.149.341c-2.816,6.519-6.829,8.858-14.382,8.832" transform="translate(-2.881 -13.985)" fill="#fff" fill-rule="evenodd"/>
      <path id="Path_28" data-name="Path 28" d="M11.759,57.08l32.617.109a3.989,3.989,0,0,0,4.022-2.54l.149-.341a2.741,2.741,0,0,0,.211-.543c.377-1.319-.289-1.91-1.95-1.916l-32.671-.11Z" transform="translate(-4.063 -17.877)" fill="#fff" fill-rule="evenodd"/>
      <path id="Path_29" data-name="Path 29" d="M20.59,37.4l32.128.108a3.882,3.882,0,0,0,3.951-2.44l.149-.341a4.329,4.329,0,0,0,.243-.69c.369-1.272-.343-1.864-1.965-1.87l-32.128-.108Z" transform="translate(-7.114 -11.076)" fill="#fff" fill-rule="evenodd"/>
    </g>
  </g>
</svg>
